<?xml version="1.0" encoding="utf-8"?>
<!-- Sun icon by Arthur Shlain from Usefulicons.com -->
<svg xmlns="http://www.w3.org/2000/svg" xmlns:xlink="http://www.w3.org/1999/xlink" xml:space="preserve" version="1.1" x="0px" y="0px" viewBox="0 0 100 100" width="400px" height="400px"><path d="M50,20c-16.542,0-30,13.458-30,30s13.458,30,30,30s30-13.458,30-30S66.542,20,50,20z M50,75c-13.785,0-25-11.215-25-25   s11.215-25,25-25s25,11.215,25,25S63.785,75,50,75z" stroke="none"></path><path d="M40.292,16.278c0.215,0,0.433-0.028,0.649-0.085c1.333-0.357,2.125-1.729,1.768-3.062l-1.294-4.83   c-0.358-1.334-1.731-2.122-3.063-1.768c-1.333,0.357-2.125,1.729-1.768,3.062l1.294,4.83   C38.179,15.542,39.188,16.278,40.292,16.278z" stroke="none"></path><path d="M21.716,25.251c0.488,0.488,1.128,0.732,1.768,0.732s1.279-0.244,1.768-0.732c0.977-0.977,0.977-2.56,0-3.536l-3.535-3.536   c-0.977-0.977-2.559-0.976-3.535,0c-0.977,0.977-0.977,2.56,0,3.536L21.716,25.251z" stroke="none"></path><path d="M78.284,74.749c-0.977-0.977-2.559-0.976-3.535,0c-0.977,0.977-0.977,2.56,0,3.536l3.535,3.536   c0.488,0.488,1.128,0.732,1.768,0.732s1.279-0.244,1.768-0.732c0.977-0.977,0.977-2.56,0-3.536L78.284,74.749z" stroke="none"></path><path d="M21.716,74.749l-3.535,3.536c-0.977,0.976-0.977,2.559,0,3.536c0.488,0.488,1.128,0.732,1.768,0.732   s1.279-0.244,1.768-0.732l3.535-3.536c0.977-0.976,0.977-2.559,0-3.536C24.274,73.773,22.692,73.772,21.716,74.749z" stroke="none"></path><path d="M78.284,18.18l-3.535,3.536c-0.977,0.976-0.977,2.559,0,3.536c0.488,0.488,1.128,0.732,1.768,0.732   s1.279-0.244,1.768-0.732l3.535-3.536c0.977-0.976,0.977-2.559,0-3.536C80.843,17.204,79.261,17.204,78.284,18.18z" stroke="none"></path><path d="M59.708,16.278c1.104,0,2.113-0.737,2.413-1.854l1.294-4.83c0.357-1.333-0.435-2.705-1.768-3.062   c-1.328-0.356-2.704,0.434-3.063,1.768l-1.294,4.83c-0.357,1.333,0.435,2.705,1.768,3.062   C59.275,16.251,59.493,16.278,59.708,16.278z" stroke="none"></path><path d="M91.699,58.585l-4.829-1.294c-1.328-0.354-2.704,0.433-3.063,1.767c-0.357,1.334,0.435,2.705,1.768,3.062l4.829,1.294   c0.217,0.058,0.435,0.086,0.649,0.086c1.104,0,2.113-0.736,2.413-1.853C93.824,60.313,93.032,58.943,91.699,58.585z" stroke="none"></path><path d="M14.425,37.88l-4.829-1.294c-1.328-0.355-2.704,0.433-3.063,1.767c-0.357,1.334,0.435,2.705,1.768,3.062l4.829,1.294   c0.217,0.058,0.435,0.086,0.649,0.086c1.104,0,2.113-0.736,2.413-1.853C16.55,39.608,15.758,38.237,14.425,37.88z" stroke="none"></path><path d="M90.404,36.585l-4.829,1.294c-1.333,0.357-2.125,1.728-1.768,3.062c0.3,1.117,1.31,1.853,2.413,1.853   c0.215,0,0.433-0.028,0.649-0.086l4.829-1.294c1.333-0.357,2.125-1.728,1.768-3.062C93.108,37.019,91.734,36.229,90.404,36.585z" stroke="none"></path><path d="M13.13,57.291l-4.829,1.294c-1.333,0.357-2.125,1.728-1.768,3.062c0.3,1.117,1.31,1.853,2.413,1.853   c0.215,0,0.433-0.028,0.649-0.086l4.829-1.294c1.333-0.357,2.125-1.728,1.768-3.062C15.834,57.724,14.461,56.937,13.13,57.291z" stroke="none"></path><path d="M62.121,85.575c-0.357-1.334-1.73-2.122-3.063-1.768c-1.333,0.357-2.125,1.729-1.768,3.062l1.294,4.83   c0.3,1.117,1.31,1.854,2.413,1.854c0.215,0,0.433-0.028,0.649-0.085c1.333-0.357,2.125-1.729,1.768-3.062L62.121,85.575z" stroke="none"></path><path d="M40.941,83.807c-1.329-0.356-2.704,0.434-3.063,1.768l-1.294,4.83c-0.357,1.333,0.435,2.705,1.768,3.062   c0.217,0.058,0.435,0.085,0.649,0.085c1.104,0,2.113-0.737,2.413-1.854l1.294-4.83C43.066,85.536,42.274,84.165,40.941,83.807z" stroke="none"></path></svg>